<svg preserveAspectRatio="none" width="100%" height="100%" overflow="visible" style="display: block;" viewBox="0 0 48 48" fill="none" xmlns="http://www.w3.org/2000/svg">
<g id="drive_file_move">
<mask id="mask0_0_35" style="mask-type:alpha" maskUnits="userSpaceOnUse" x="0" y="0" width="48" height="48">
<rect id="Bounding box" width="48" height="48" fill="var(--fill-0, #D9D9D9)"/>
</mask>
<g mask="url(#mask0_0_35)">
<path id="drive_file_move_2" d="M25.678 27.952L22.6065 31.024L25.074 33.5195L32.424 26.1695L25.074 18.8195L22.6065 21.287L25.678 24.387H15.7455V27.952H25.678ZM7.2545 40.7065C6.17083 40.7065 5.23967 40.309 4.461 39.514C3.68267 38.7187 3.2935 37.7958 3.2935 36.7455V11.2545C3.2935 10.1965 3.68267 9.26717 4.461 8.4665C5.23967 7.6655 6.17083 7.265 7.2545 7.265H20.739L24.05 10.6045H40.7455C41.8035 10.6045 42.7328 11.002 43.5335 11.797C44.3345 12.5923 44.735 13.515 44.735 14.565V36.7455C44.735 37.7958 44.3345 38.7187 43.5335 39.514C42.7328 40.309 41.8035 40.7065 40.7455 40.7065H7.2545ZM7.2545 36.7455H40.7455V14.565H22.4045L19.0935 11.2545H7.2545V36.7455Z" fill="var(--fill-0, #036EF2)"/>
</g>
</g>
</svg>
