<svg preserveAspectRatio="none" width="100%" height="100%" overflow="visible" style="display: block;" viewBox="0 0 48 48" fill="none" xmlns="http://www.w3.org/2000/svg">
<g id="explore">
<mask id="mask0_0_32" style="mask-type:alpha" maskUnits="userSpaceOnUse" x="0" y="0" width="48" height="48">
<rect id="Bounding box" width="48" height="48" fill="var(--fill-0, #D9D9D9)"/>
</mask>
<g mask="url(#mask0_0_32)">
<path id="explore_2" d="M15.3195 32.6805L28.876 28.926L32.6305 15.3695L19.074 19.124L15.3195 32.6805ZM23.9815 25.576C23.5592 25.576 23.194 25.4158 22.886 25.0955C22.578 24.7755 22.424 24.4042 22.424 23.9815C22.424 23.5592 22.5842 23.194 22.9045 22.886C23.2245 22.578 23.5958 22.424 24.0185 22.424C24.4408 22.424 24.806 22.5842 25.114 22.9045C25.422 23.2245 25.576 23.5958 25.576 24.0185C25.576 24.4408 25.4158 24.806 25.0955 25.114C24.7755 25.422 24.4042 25.576 23.9815 25.576ZM24.017 44.7065C21.1437 44.7065 18.452 44.1667 15.942 43.087C13.432 42.007 11.2363 40.5263 9.355 38.645C7.47367 36.7637 5.993 34.5682 4.913 32.0585C3.83333 29.5485 3.2935 26.8553 3.2935 23.979C3.2935 21.1027 3.83333 18.4082 4.913 15.8955C5.993 13.3832 7.47217 11.1942 9.3505 9.3285C11.2288 7.46283 13.4237 5.98583 15.935 4.8975C18.4463 3.80917 21.1408 3.265 24.0185 3.265C26.8965 3.265 29.5928 3.8085 32.1075 4.8955C34.6225 5.98217 36.812 7.45717 38.676 9.3205C40.5403 11.1835 42.0162 13.3743 43.1035 15.893C44.1912 18.4117 44.735 21.1095 44.735 23.9865C44.735 26.8628 44.1908 29.5558 43.1025 32.0655C42.0142 34.5752 40.5372 36.7665 38.6715 38.6395C36.8058 40.5122 34.6155 41.9915 32.1005 43.0775C29.5852 44.1635 26.8907 44.7065 24.017 44.7065ZM24.0195 40.7455C28.7022 40.7455 32.6605 39.122 35.8945 35.875C39.1285 32.6283 40.7455 28.6635 40.7455 23.9805C40.7455 19.2978 39.1302 15.3395 35.8995 12.1055C32.6688 8.8715 28.712 7.2545 24.029 7.2545C19.3463 7.2545 15.3798 8.86983 12.1295 12.1005C8.8795 15.3312 7.2545 19.288 7.2545 23.971C7.2545 28.6537 8.878 32.6202 12.125 35.8705C15.3717 39.1205 19.3365 40.7455 24.0195 40.7455Z" fill="var(--fill-0, #036EF2)"/>
</g>
</g>
</svg>
