<svg preserveAspectRatio="none" width="100%" height="100%" overflow="visible" style="display: block;" viewBox="0 0 48 48" fill="none" xmlns="http://www.w3.org/2000/svg">
<g id="mobile_layout">
<mask id="mask0_0_56" style="mask-type:alpha" maskUnits="userSpaceOnUse" x="0" y="0" width="48" height="48">
<rect id="Bounding box" width="48" height="48" fill="var(--fill-0, #D9D9D9)"/>
</mask>
<g mask="url(#mask0_0_56)">
<path id="mobile_layout_2" d="M5.1415 42.7065C4.05017 42.7065 3.11233 42.3173 2.328 41.539C1.544 40.7603 1.152 39.8292 1.152 38.7455V34.2785C1.152 33.1872 1.544 32.2493 2.328 31.465C3.11233 30.681 4.05017 30.289 5.1415 30.289H18.063C19.1267 30.289 20.0528 30.681 20.8415 31.465C21.6298 32.2493 22.024 33.1872 22.024 34.2785V38.7455C22.024 39.8292 21.6298 40.7603 20.8415 41.539C20.0528 42.3173 19.1267 42.7065 18.063 42.7065H5.1415ZM30.165 42.7065C29.0737 42.7065 28.136 42.3173 27.352 41.539C26.568 40.7603 26.176 39.8292 26.176 38.7455V9.2545C26.176 8.16317 26.568 7.2255 27.352 6.4415C28.136 5.65717 29.0737 5.265 30.165 5.265H42.887C43.9507 5.265 44.8767 5.65717 45.665 6.4415C46.4537 7.2255 46.848 8.16317 46.848 9.2545V38.7455C46.848 39.8292 46.4537 40.7603 45.665 41.539C44.8767 42.3173 43.9507 42.7065 42.887 42.7065H30.165ZM4.915 38.9435H18.261V34.052H4.915V38.9435ZM29.939 38.9435H43.085V9.0285H29.939V38.9435ZM36.589 36.3675C37.0557 36.3675 37.4543 36.2052 37.785 35.8805C38.1153 35.5562 38.2805 35.1583 38.2805 34.687C38.2805 34.2237 38.1133 33.8362 37.779 33.5245C37.4447 33.2125 37.0442 33.0565 36.5775 33.0565C36.1105 33.0565 35.721 33.2138 35.409 33.5285C35.0973 33.8432 34.9415 34.2332 34.9415 34.6985C34.9415 35.1545 35.0993 35.5467 35.415 35.875C35.7307 36.2033 36.122 36.3675 36.589 36.3675ZM5.1415 26.137C4.05017 26.137 3.11233 25.7477 2.328 24.969C1.544 24.1907 1.152 23.2597 1.152 22.176V9.2545C1.152 8.16317 1.544 7.2255 2.328 6.4415C3.11233 5.65717 4.05017 5.265 5.1415 5.265H18.063C19.1267 5.265 20.0528 5.65717 20.8415 6.4415C21.6298 7.2255 22.024 8.16317 22.024 9.2545V22.176C22.024 23.2597 21.6298 24.1907 20.8415 24.969C20.0528 25.7477 19.1267 26.137 18.063 26.137H5.1415ZM14.054 14.9715C14.5173 14.9715 14.905 14.809 15.217 14.484C15.529 14.1587 15.685 13.76 15.685 13.288C15.685 12.841 15.5277 12.4487 15.213 12.111C14.898 11.7733 14.508 11.6045 14.043 11.6045C13.5867 11.6045 13.1897 11.7707 12.852 12.103C12.5143 12.4357 12.3455 12.8343 12.3455 13.299C12.3455 13.772 12.5143 14.169 12.852 14.49C13.1897 14.811 13.5903 14.9715 14.054 14.9715ZM4.915 21.8325L8.952 16.424L13.5305 22.474H18.261V9.0285H4.915V21.8325Z" fill="var(--fill-0, #036EF2)"/>
</g>
</g>
</svg>
