<svg preserveAspectRatio="none" width="100%" height="100%" overflow="visible" style="display: block;" viewBox="0 0 48 48" fill="none" xmlns="http://www.w3.org/2000/svg">
<g id="table_eye">
<mask id="mask0_0_23" style="mask-type:alpha" maskUnits="userSpaceOnUse" x="0" y="0" width="48" height="48">
<rect id="Bounding box" width="48" height="48" fill="var(--fill-0, #D9D9D9)"/>
</mask>
<g mask="url(#mask0_0_23)">
<path id="table_eye_2" d="M9.2545 42.7065C8.17083 42.7065 7.23967 42.3173 6.461 41.539C5.68267 40.7603 5.2935 39.8292 5.2935 38.7455V9.2545C5.2935 8.16317 5.68267 7.2255 6.461 6.4415C7.23967 5.65717 8.17083 5.265 9.2545 5.265H38.7455C39.8368 5.265 40.7745 5.65717 41.5585 6.4415C42.3428 7.2255 42.735 8.16317 42.735 9.2545V27.5715C42.109 27.1718 41.4613 26.8093 40.792 26.484C40.1223 26.1587 39.4402 25.8988 38.7455 25.7045V17.452H25.9805V26.039C24.8355 26.4623 23.7728 27.012 22.7925 27.688C21.8118 28.3643 20.902 29.1662 20.063 30.0935H9.2545V38.7455L16.7045 38.8585C17.0755 39.5948 17.4737 40.28 17.899 40.914C18.3243 41.548 18.7768 42.1455 19.2565 42.7065H9.2545ZM9.2545 26.1045H22.0195V17.452H9.2545V26.1045ZM9.2545 13.4915H38.7455V9.2545H9.2545V13.4915ZM32.8485 45.848C29.7915 45.848 26.9992 45.0367 24.4715 43.414C21.9442 41.7917 20.0877 39.5812 18.902 36.7825C20.0877 34.0028 21.9442 31.8018 24.4715 30.1795C26.9992 28.5568 29.8003 27.7455 32.875 27.7455C35.9307 27.7455 38.7212 28.558 41.2465 30.183C43.7715 31.808 45.6387 34.0162 46.848 36.8075C45.7103 39.6228 43.8575 41.8333 41.2895 43.439C38.7218 45.045 35.9082 45.848 32.8485 45.848ZM38.4835 40.8075C40.2408 39.8242 41.7238 38.4825 42.9325 36.7825C41.7238 35.1015 40.239 33.7647 38.478 32.772C36.717 31.779 34.8427 31.2825 32.855 31.2825C30.8677 31.2825 29 31.779 27.252 32.772C25.5043 33.7647 24.0355 35.1015 22.8455 36.7825C24.0355 38.4825 25.5063 39.8242 27.258 40.8075C29.0097 41.7908 30.8792 42.2825 32.8665 42.2825C34.8542 42.2825 36.7265 41.7908 38.4835 40.8075ZM30.9445 38.7215C30.4235 38.1965 30.163 37.553 30.163 36.791C30.163 36.029 30.4255 35.3875 30.9505 34.8665C31.4755 34.3455 32.119 34.085 32.881 34.085C33.643 34.085 34.2845 34.3473 34.8055 34.872C35.3265 35.397 35.587 36.0405 35.587 36.8025C35.587 37.5645 35.3245 38.206 34.7995 38.727C34.2745 39.248 33.631 39.5085 32.869 39.5085C32.107 39.5085 31.4655 39.2462 30.9445 38.7215Z" fill="var(--fill-0, #036EF2)"/>
</g>
</g>
</svg>
