<svg width="284" height="186" viewBox="0 0 284 186" fill="none" xmlns="http://www.w3.org/2000/svg">
<path d="M178.155 12.508C177.331 12.4224 176.594 13.021 176.508 13.845C176.422 14.669 177.021 15.4064 177.845 15.492L178 14L178.155 12.508ZM240.939 84.0607C241.525 84.6464 242.475 84.6464 243.061 84.0607L252.607 74.5147C253.192 73.9289 253.192 72.9792 252.607 72.3934C252.021 71.8076 251.071 71.8076 250.485 72.3934L242 80.8787L233.515 72.3934C232.929 71.8076 231.979 71.8076 231.393 72.3934C230.808 72.9792 230.808 73.9289 231.393 74.5147L240.939 84.0607ZM178 14L177.845 15.492C215.584 19.413 240.5 48.7722 240.5 83H242H243.5C243.5 47.2278 217.416 16.587 178.155 12.508L178 14Z" fill="#036EF2"/>
<path d="M40.508 81.845C40.4224 82.669 41.021 83.4064 41.845 83.492C42.669 83.5776 43.4064 82.979 43.492 82.155L42 82L40.508 81.845ZM112.061 19.0607C112.646 18.4749 112.646 17.5251 112.061 16.9393L102.515 7.3934C101.929 6.80761 100.979 6.80761 100.393 7.3934C99.8076 7.97919 99.8076 8.92893 100.393 9.51472L108.879 18L100.393 26.4853C99.8076 27.0711 99.8076 28.0208 100.393 28.6066C100.979 29.1924 101.929 29.1924 102.515 28.6066L112.061 19.0607ZM42 82L43.492 82.155C47.413 44.4155 76.7722 19.5 111 19.5V18V16.5C75.2278 16.5 44.587 42.5845 40.508 81.845L42 82Z" fill="#036EF2"/>
<path d="M240.402 130.533C240.696 129.758 240.307 128.892 239.533 128.598C238.758 128.304 237.892 128.693 237.598 129.467L239 130L240.402 130.533ZM47.7102 127.679C46.9806 127.287 46.0711 127.56 45.6788 128.29L39.2867 140.181C38.8944 140.91 39.1679 141.82 39.8976 142.212C40.6273 142.604 41.5368 142.331 41.929 141.601L47.611 131.031L58.1805 136.713C58.9102 137.106 59.8197 136.832 60.212 136.102C60.6042 135.373 60.3307 134.463 59.601 134.071L47.7102 127.679ZM239 130L237.598 129.467C222.926 168.102 180.749 184.363 139.315 182.564C118.643 181.666 98.3178 176.266 81.9571 167.015C65.5938 157.762 53.2943 144.72 48.4364 128.568L47 129L45.5636 129.432C50.7057 146.53 63.6562 160.113 80.4804 169.626C97.3072 179.141 118.107 184.646 139.185 185.561C181.251 187.387 225.074 170.898 240.402 130.533L239 130Z" fill="#036EF2"/>
<rect x="1" y="90" width="93" height="32" rx="16" fill="#036EF2" fill-opacity="0.06"/>
<rect x="1" y="90" width="93" height="32" rx="16" stroke="#036EF2" stroke-width="2"/>
<path d="M21.5316 111.71C20.5236 111.71 19.6533 111.491 18.9206 111.052C18.1926 110.613 17.6303 110 17.2336 109.211C16.8416 108.422 16.6456 107.505 16.6456 106.46C16.6456 105.415 16.8416 104.498 17.2336 103.709C17.6303 102.92 18.1926 102.307 18.9206 101.868C19.6533 101.429 20.5236 101.21 21.5316 101.21C22.5396 101.21 23.4076 101.429 24.1356 101.868C24.8683 102.307 25.4306 102.92 25.8226 103.709C26.2193 104.498 26.4176 105.415 26.4176 106.46C26.4176 107.505 26.2193 108.422 25.8226 109.211C25.4306 110 24.8683 110.613 24.1356 111.052C23.4076 111.491 22.5396 111.71 21.5316 111.71ZM21.5316 109.918C22.1709 109.927 22.7029 109.79 23.1276 109.505C23.5523 109.22 23.8696 108.817 24.0796 108.294C24.2943 107.771 24.4016 107.16 24.4016 106.46C24.4016 105.76 24.2943 105.153 24.0796 104.64C23.8696 104.127 23.5523 103.728 23.1276 103.443C22.7029 103.158 22.1709 103.011 21.5316 103.002C20.8923 102.993 20.3603 103.13 19.9356 103.415C19.5109 103.7 19.1913 104.103 18.9766 104.626C18.7666 105.149 18.6616 105.76 18.6616 106.46C18.6616 107.16 18.7666 107.767 18.9766 108.28C19.1913 108.793 19.5109 109.192 19.9356 109.477C20.3603 109.762 20.8923 109.909 21.5316 109.918ZM31.525 111.71C30.7736 111.71 30.146 111.535 29.642 111.185C29.138 110.835 28.7576 110.359 28.501 109.757C28.249 109.155 28.123 108.476 28.123 107.72C28.123 106.964 28.249 106.285 28.501 105.683C28.753 105.081 29.124 104.605 29.614 104.255C30.104 103.905 30.7083 103.73 31.427 103.73C32.1503 103.73 32.7803 103.903 33.317 104.248C33.8536 104.593 34.269 105.067 34.563 105.669C34.8616 106.266 35.011 106.95 35.011 107.72C35.011 108.476 34.864 109.155 34.57 109.757C34.2806 110.359 33.8746 110.835 33.352 111.185C32.8293 111.535 32.2203 111.71 31.525 111.71ZM27.801 111.5V101.42H29.719V106.32H29.481V111.5H27.801ZM31.217 110.016C31.6276 110.016 31.9636 109.913 32.225 109.708C32.4863 109.503 32.68 109.227 32.806 108.882C32.932 108.532 32.995 108.145 32.995 107.72C32.995 107.3 32.9296 106.917 32.799 106.572C32.6683 106.222 32.4653 105.944 32.19 105.739C31.9193 105.529 31.5716 105.424 31.147 105.424C30.7503 105.424 30.4283 105.52 30.181 105.711C29.9383 105.902 29.761 106.171 29.649 106.516C29.537 106.861 29.481 107.263 29.481 107.72C29.481 108.177 29.537 108.579 29.649 108.924C29.761 109.269 29.943 109.538 30.195 109.729C30.4516 109.92 30.7923 110.016 31.217 110.016ZM39.3002 111.71C38.3482 111.71 37.5782 111.495 36.9902 111.066C36.4069 110.632 36.0522 110.021 35.9262 109.232L37.8722 108.938C37.9515 109.293 38.1265 109.57 38.3972 109.771C38.6725 109.972 39.0202 110.072 39.4402 110.072C39.7855 110.072 40.0515 110.007 40.2382 109.876C40.4249 109.741 40.5182 109.554 40.5182 109.316C40.5182 109.167 40.4809 109.048 40.4062 108.959C40.3315 108.866 40.1635 108.775 39.9022 108.686C39.6455 108.597 39.2442 108.481 38.6982 108.336C38.0822 108.177 37.5899 108 37.2212 107.804C36.8525 107.608 36.5865 107.375 36.4232 107.104C36.2599 106.829 36.1782 106.497 36.1782 106.11C36.1782 105.625 36.3019 105.205 36.5492 104.85C36.7965 104.491 37.1442 104.215 37.5922 104.024C38.0449 103.828 38.5769 103.73 39.1882 103.73C39.7809 103.73 40.3059 103.821 40.7632 104.003C41.2205 104.185 41.5892 104.444 41.8692 104.78C42.1539 105.116 42.3289 105.513 42.3942 105.97L40.4482 106.32C40.4155 106.04 40.2942 105.818 40.0842 105.655C39.8742 105.492 39.5895 105.396 39.2302 105.368C38.8802 105.345 38.5979 105.391 38.3832 105.508C38.1732 105.625 38.0682 105.793 38.0682 106.012C38.0682 106.143 38.1125 106.252 38.2012 106.341C38.2945 106.43 38.4835 106.521 38.7682 106.614C39.0575 106.707 39.4962 106.829 40.0842 106.978C40.6582 107.127 41.1179 107.302 41.4632 107.503C41.8132 107.699 42.0675 107.937 42.2262 108.217C42.3849 108.492 42.4642 108.826 42.4642 109.218C42.4642 109.993 42.1842 110.602 41.6242 111.045C41.0642 111.488 40.2895 111.71 39.3002 111.71ZM47.5165 111.71C46.7418 111.71 46.0581 111.544 45.4655 111.213C44.8775 110.877 44.4155 110.417 44.0795 109.834C43.7481 109.246 43.5825 108.574 43.5825 107.818C43.5825 106.992 43.7458 106.273 44.0725 105.662C44.3991 105.051 44.8495 104.577 45.4235 104.241C45.9975 103.9 46.6578 103.73 47.4045 103.73C48.1978 103.73 48.8721 103.917 49.4275 104.29C49.9828 104.663 50.3935 105.188 50.6595 105.865C50.9255 106.542 51.0188 107.337 50.9395 108.252H49.0565V107.552C49.0565 106.782 48.9328 106.229 48.6855 105.893C48.4428 105.552 48.0438 105.382 47.4885 105.382C46.8398 105.382 46.3615 105.58 46.0535 105.977C45.7501 106.369 45.5985 106.95 45.5985 107.72C45.5985 108.425 45.7501 108.971 46.0535 109.358C46.3615 109.741 46.8118 109.932 47.4045 109.932C47.7778 109.932 48.0975 109.85 48.3635 109.687C48.6295 109.524 48.8325 109.288 48.9725 108.98L50.8765 109.526C50.5918 110.217 50.1415 110.753 49.5255 111.136C48.9141 111.519 48.2445 111.71 47.5165 111.71ZM45.0105 108.252V106.838H50.0225V108.252H45.0105ZM52.52 111.5V103.94H54.2V105.788L54.018 105.55C54.116 105.289 54.2467 105.051 54.41 104.836C54.5734 104.621 54.774 104.444 55.012 104.304C55.194 104.192 55.3924 104.106 55.607 104.045C55.8217 103.98 56.0434 103.94 56.272 103.926C56.5007 103.907 56.7294 103.912 56.958 103.94V105.718C56.748 105.653 56.503 105.632 56.223 105.655C55.9477 105.674 55.698 105.737 55.474 105.844C55.25 105.947 55.061 106.084 54.907 106.257C54.753 106.425 54.6364 106.626 54.557 106.859C54.4777 107.088 54.438 107.347 54.438 107.636V111.5H52.52ZM60.3336 111.5L57.5896 103.94H59.4936L61.2856 109.176L63.0776 103.94H64.9816L62.2376 111.5H60.3336ZM67.9228 111.71C67.3814 111.71 66.9218 111.607 66.5438 111.402C66.1704 111.192 65.8858 110.914 65.6898 110.569C65.4984 110.219 65.4028 109.834 65.4028 109.414C65.4028 109.064 65.4564 108.744 65.5638 108.455C65.6711 108.166 65.8438 107.911 66.0818 107.692C66.3244 107.468 66.6488 107.281 67.0548 107.132C67.3348 107.029 67.6684 106.938 68.0558 106.859C68.4431 106.78 68.8818 106.705 69.3718 106.635C69.8618 106.56 70.4008 106.479 70.9888 106.39L70.3028 106.768C70.3028 106.32 70.1954 105.991 69.9808 105.781C69.7661 105.571 69.4068 105.466 68.9028 105.466C68.6228 105.466 68.3311 105.534 68.0278 105.669C67.7244 105.804 67.5121 106.045 67.3908 106.39L65.6688 105.844C65.8601 105.219 66.2194 104.71 66.7468 104.318C67.2741 103.926 67.9928 103.73 68.9028 103.73C69.5701 103.73 70.1628 103.833 70.6808 104.038C71.1988 104.243 71.5908 104.598 71.8568 105.102C72.0061 105.382 72.0948 105.662 72.1228 105.942C72.1508 106.222 72.1648 106.535 72.1648 106.88V111.5H70.4988V109.946L70.7368 110.268C70.3681 110.777 69.9691 111.145 69.5398 111.374C69.1151 111.598 68.5761 111.71 67.9228 111.71ZM68.3288 110.212C68.6788 110.212 68.9728 110.151 69.2108 110.03C69.4534 109.904 69.6448 109.762 69.7848 109.603C69.9294 109.444 70.0274 109.311 70.0788 109.204C70.1768 108.999 70.2328 108.761 70.2468 108.49C70.2654 108.215 70.2748 107.986 70.2748 107.804L70.8348 107.944C70.2701 108.037 69.8128 108.117 69.4628 108.182C69.1128 108.243 68.8304 108.299 68.6158 108.35C68.4011 108.401 68.2121 108.457 68.0488 108.518C67.8621 108.593 67.7104 108.674 67.5938 108.763C67.4818 108.847 67.3978 108.94 67.3418 109.043C67.2904 109.146 67.2648 109.26 67.2648 109.386C67.2648 109.559 67.3068 109.708 67.3908 109.834C67.4794 109.955 67.6031 110.049 67.7618 110.114C67.9204 110.179 68.1094 110.212 68.3288 110.212ZM73.9849 111.5V103.94H75.6649V105.788L75.4829 105.55C75.5809 105.289 75.7115 105.051 75.8749 104.836C76.0382 104.621 76.2389 104.444 76.4769 104.304C76.6589 104.192 76.8572 104.106 77.0719 104.045C77.2865 103.98 77.5082 103.94 77.7369 103.926C77.9655 103.907 78.1942 103.912 78.4229 103.94V105.718C78.2129 105.653 77.9679 105.632 77.6879 105.655C77.4125 105.674 77.1629 105.737 76.9389 105.844C76.7149 105.947 76.5259 106.084 76.3719 106.257C76.2179 106.425 76.1012 106.626 76.0219 106.859C75.9425 107.088 75.9029 107.347 75.9029 107.636V111.5H73.9849Z" fill="#04165D"/>
<rect x="118" y="1" width="52" height="32" rx="16" fill="#036EF2" fill-opacity="0.06"/>
<rect x="118" y="1" width="52" height="32" rx="16" stroke="#036EF2" stroke-width="2"/>
<path d="M134.189 22.5V12.42H136.093V20.722H140.433V22.5H134.189ZM145.138 22.71C144.363 22.71 143.679 22.5443 143.087 22.213C142.499 21.877 142.037 21.4173 141.701 20.834C141.369 20.246 141.204 19.574 141.204 18.818C141.204 17.992 141.367 17.2733 141.694 16.662C142.02 16.0507 142.471 15.577 143.045 15.241C143.619 14.9003 144.279 14.73 145.026 14.73C145.819 14.73 146.493 14.9167 147.049 15.29C147.604 15.6633 148.015 16.1883 148.281 16.865C148.547 17.5417 148.64 18.3373 148.561 19.252H146.678V18.552C146.678 17.782 146.554 17.229 146.307 16.893C146.064 16.5523 145.665 16.382 145.11 16.382C144.461 16.382 143.983 16.5803 143.675 16.977C143.371 17.369 143.22 17.95 143.22 18.72C143.22 19.4247 143.371 19.9707 143.675 20.358C143.983 20.7407 144.433 20.932 145.026 20.932C145.399 20.932 145.719 20.8503 145.985 20.687C146.251 20.5237 146.454 20.288 146.594 19.98L148.498 20.526C148.213 21.2167 147.763 21.7533 147.147 22.136C146.535 22.5187 145.866 22.71 145.138 22.71ZM142.632 19.252V17.838H147.644V19.252H142.632ZM150.141 22.5V14.94H151.821V16.788L151.639 16.55C151.737 16.2887 151.868 16.0507 152.031 15.836C152.194 15.6213 152.395 15.444 152.633 15.304C152.815 15.192 153.013 15.1057 153.228 15.045C153.443 14.9797 153.664 14.94 153.893 14.926C154.122 14.9073 154.35 14.912 154.579 14.94V16.718C154.369 16.6527 154.124 16.6317 153.844 16.655C153.569 16.6737 153.319 16.7367 153.095 16.844C152.871 16.9467 152.682 17.0843 152.528 17.257C152.374 17.425 152.257 17.6257 152.178 17.859C152.099 18.0877 152.059 18.3467 152.059 18.636V22.5H150.141Z" fill="#04165D"/>
<rect x="202" y="90" width="81" height="32" rx="16" fill="#036EF2" fill-opacity="0.06"/>
<rect x="202" y="90" width="81" height="32" rx="16" stroke="#036EF2" stroke-width="2"/>
<path d="M217.542 111.5L220.622 101.42H223.464L226.544 111.5H224.584L221.84 102.61H222.204L219.502 111.5H217.542ZM219.39 109.4V107.622H224.71V109.4H219.39ZM226.678 114.86V113.082H227.014C227.448 113.082 227.745 112.984 227.903 112.788C228.067 112.592 228.148 112.312 228.148 111.948V103.94H230.052V112.872C230.052 113.474 229.863 113.955 229.485 114.314C229.112 114.678 228.606 114.86 227.966 114.86H226.678ZM228.148 102.89V101.21H230.052V102.89H228.148ZM234.823 111.724C234.231 111.724 233.748 111.624 233.374 111.423C233.001 111.222 232.709 110.968 232.499 110.66C232.294 110.352 232.147 110.032 232.058 109.701C231.97 109.365 231.916 109.059 231.897 108.784C231.879 108.509 231.869 108.308 231.869 108.182V103.94H233.801V107.51C233.801 107.683 233.811 107.904 233.829 108.175C233.848 108.441 233.906 108.709 234.004 108.98C234.102 109.251 234.261 109.477 234.48 109.659C234.704 109.841 235.019 109.932 235.425 109.932C235.589 109.932 235.764 109.906 235.95 109.855C236.137 109.804 236.312 109.706 236.475 109.561C236.639 109.412 236.772 109.195 236.874 108.91C236.982 108.621 237.035 108.243 237.035 107.776L238.127 108.294C238.127 108.891 238.006 109.451 237.763 109.974C237.521 110.497 237.154 110.919 236.664 111.241C236.179 111.563 235.565 111.724 234.823 111.724ZM237.273 111.5V108.994H237.035V103.94H238.953V111.5H237.273ZM243.864 111.71C242.912 111.71 242.142 111.495 241.554 111.066C240.97 110.632 240.616 110.021 240.49 109.232L242.436 108.938C242.515 109.293 242.69 109.57 242.961 109.771C243.236 109.972 243.584 110.072 244.004 110.072C244.349 110.072 244.615 110.007 244.802 109.876C244.988 109.741 245.082 109.554 245.082 109.316C245.082 109.167 245.044 109.048 244.97 108.959C244.895 108.866 244.727 108.775 244.466 108.686C244.209 108.597 243.808 108.481 243.262 108.336C242.646 108.177 242.153 108 241.785 107.804C241.416 107.608 241.15 107.375 240.987 107.104C240.823 106.829 240.742 106.497 240.742 106.11C240.742 105.625 240.865 105.205 241.113 104.85C241.36 104.491 241.708 104.215 242.156 104.024C242.608 103.828 243.14 103.73 243.752 103.73C244.344 103.73 244.869 103.821 245.327 104.003C245.784 104.185 246.153 104.444 246.433 104.78C246.717 105.116 246.892 105.513 246.958 105.97L245.012 106.32C244.979 106.04 244.858 105.818 244.648 105.655C244.438 105.492 244.153 105.396 243.794 105.368C243.444 105.345 243.161 105.391 242.947 105.508C242.737 105.625 242.632 105.793 242.632 106.012C242.632 106.143 242.676 106.252 242.765 106.341C242.858 106.43 243.047 106.521 243.332 106.614C243.621 106.707 244.06 106.829 244.648 106.978C245.222 107.127 245.681 107.302 246.027 107.503C246.377 107.699 246.631 107.937 246.79 108.217C246.948 108.492 247.028 108.826 247.028 109.218C247.028 109.993 246.748 110.602 246.188 111.045C245.628 111.488 244.853 111.71 243.864 111.71ZM253.102 111.5C252.579 111.598 252.066 111.64 251.562 111.626C251.063 111.617 250.615 111.53 250.218 111.367C249.826 111.199 249.527 110.931 249.322 110.562C249.135 110.217 249.037 109.867 249.028 109.512C249.019 109.153 249.014 108.747 249.014 108.294V101.84H250.918V108.182C250.918 108.476 250.92 108.742 250.925 108.98C250.934 109.213 250.983 109.4 251.072 109.54C251.24 109.806 251.508 109.951 251.877 109.974C252.246 109.997 252.654 109.979 253.102 109.918V111.5ZM247.726 105.41V103.94H253.102V105.41H247.726ZM256.887 111.71C256.345 111.71 255.886 111.607 255.508 111.402C255.134 111.192 254.85 110.914 254.654 110.569C254.462 110.219 254.367 109.834 254.367 109.414C254.367 109.064 254.42 108.744 254.528 108.455C254.635 108.166 254.808 107.911 255.046 107.692C255.288 107.468 255.613 107.281 256.019 107.132C256.299 107.029 256.632 106.938 257.02 106.859C257.407 106.78 257.846 106.705 258.336 106.635C258.826 106.56 259.365 106.479 259.953 106.39L259.267 106.768C259.267 106.32 259.159 105.991 258.945 105.781C258.73 105.571 258.371 105.466 257.867 105.466C257.587 105.466 257.295 105.534 256.992 105.669C256.688 105.804 256.476 106.045 256.355 106.39L254.633 105.844C254.824 105.219 255.183 104.71 255.711 104.318C256.238 103.926 256.957 103.73 257.867 103.73C258.534 103.73 259.127 103.833 259.645 104.038C260.163 104.243 260.555 104.598 260.821 105.102C260.97 105.382 261.059 105.662 261.087 105.942C261.115 106.222 261.129 106.535 261.129 106.88V111.5H259.463V109.946L259.701 110.268C259.332 110.777 258.933 111.145 258.504 111.374C258.079 111.598 257.54 111.71 256.887 111.71ZM257.293 110.212C257.643 110.212 257.937 110.151 258.175 110.03C258.417 109.904 258.609 109.762 258.749 109.603C258.893 109.444 258.991 109.311 259.043 109.204C259.141 108.999 259.197 108.761 259.211 108.49C259.229 108.215 259.239 107.986 259.239 107.804L259.799 107.944C259.234 108.037 258.777 108.117 258.427 108.182C258.077 108.243 257.794 108.299 257.58 108.35C257.365 108.401 257.176 108.457 257.013 108.518C256.826 108.593 256.674 108.674 256.558 108.763C256.446 108.847 256.362 108.94 256.306 109.043C256.254 109.146 256.229 109.26 256.229 109.386C256.229 109.559 256.271 109.708 256.355 109.834C256.443 109.955 256.567 110.049 256.726 110.114C256.884 110.179 257.073 110.212 257.293 110.212ZM262.949 111.5V103.94H264.629V105.788L264.447 105.55C264.545 105.289 264.675 105.051 264.839 104.836C265.002 104.621 265.203 104.444 265.441 104.304C265.623 104.192 265.821 104.106 266.036 104.045C266.25 103.98 266.472 103.94 266.701 103.926C266.929 103.907 267.158 103.912 267.387 103.94V105.718C267.177 105.653 266.932 105.632 266.652 105.655C266.376 105.674 266.127 105.737 265.903 105.844C265.679 105.947 265.49 106.084 265.336 106.257C265.182 106.425 265.065 106.626 264.986 106.859C264.906 107.088 264.867 107.347 264.867 107.636V111.5H262.949Z" fill="#04165D"/>
<path d="M118.588 89.16H122.748C122.968 89.16 123.068 89.26 123.068 89.48V91.68C123.068 91.9 122.968 92 122.748 92H116.628H115.668C115.448 92 115.348 91.9 115.348 91.68V79.12C115.348 78.9 115.448 78.8 115.668 78.8H118.268C118.488 78.8 118.588 78.9 118.588 79.12V89.16ZM128.486 82.16C131.626 82.16 132.846 83.72 132.846 87.86V87.9C132.846 88.2 132.726 88.32 132.406 88.32H126.986C127.146 89.36 127.746 89.62 129.246 89.62C130.126 89.62 130.686 89.54 131.806 89.38H131.906C132.086 89.38 132.166 89.48 132.166 89.66V91.58C132.166 91.78 132.086 91.9 131.906 91.94C130.926 92.14 129.986 92.24 129.066 92.24C125.406 92.24 123.926 90.78 123.926 87.24C123.926 83.74 125.346 82.16 128.486 82.16ZM128.506 84.74C127.466 84.74 127.026 85.16 126.966 86.42H129.966C129.886 85.16 129.486 84.74 128.506 84.74ZM134.405 80.82V78.5C134.405 78.28 134.565 78.16 134.745 78.16H137.065C137.285 78.16 137.405 78.28 137.405 78.5V80.82C137.405 81 137.285 81.16 137.065 81.16H134.745C134.565 81.16 134.405 81 134.405 80.82ZM137.105 92H134.705C134.525 92 134.405 91.88 134.405 91.7V82.72C134.405 82.5 134.505 82.4 134.725 82.4H137.085C137.305 82.4 137.405 82.5 137.405 82.72V91.7C137.405 91.88 137.285 92 137.105 92ZM145.103 89.58H145.183C145.363 89.58 145.443 89.66 145.443 89.84V91.76C145.443 91.94 145.323 92.1 145.143 92.12C144.603 92.2 144.083 92.24 143.563 92.24C141.143 92.24 140.163 91.38 140.163 88.84V84.84H139.003C138.783 84.84 138.683 84.74 138.683 84.52V82.72C138.683 82.5 138.783 82.4 139.003 82.4H140.163V79.72C140.163 79.5 140.263 79.4 140.483 79.4H142.843C143.063 79.4 143.163 79.5 143.163 79.72V82.4H144.903C145.123 82.4 145.223 82.5 145.223 82.72V84.52C145.223 84.74 145.123 84.84 144.903 84.84H143.163V88.26C143.163 89.44 143.363 89.64 144.263 89.64C144.543 89.64 144.823 89.62 145.103 89.58ZM152.865 82.4H155.265C155.445 82.4 155.565 82.52 155.565 82.7V91.68C155.565 91.9 155.465 92 155.245 92H153.205C152.985 92 152.885 91.9 152.885 91.68V91.26C152.145 91.92 151.225 92.24 150.125 92.24C147.945 92.24 146.885 91.08 146.885 88.68V82.72C146.885 82.5 146.985 82.4 147.205 82.4H149.565C149.785 82.4 149.885 82.5 149.885 82.72V87.98C149.885 89.24 150.205 89.6 151.105 89.6C151.605 89.6 152.085 89.48 152.565 89.26V82.7C152.565 82.52 152.685 82.4 152.865 82.4ZM162.988 82.16C163.388 82.16 163.468 82.24 163.468 82.48V84.38C163.468 84.68 163.388 84.78 163.148 84.78H163.128C162.108 84.78 161.268 85.02 160.608 85.52V91.7C160.608 91.88 160.488 92 160.308 92H157.908C157.728 92 157.608 91.88 157.608 91.7V82.72C157.608 82.5 157.708 82.4 157.928 82.4H160.008C160.228 82.4 160.328 82.5 160.328 82.72V83.3C161.128 82.48 162.168 82.16 162.988 82.16ZM168.701 82.16C171.641 82.16 172.941 83.28 172.941 86.02V91.68C172.941 91.9 172.841 92 172.621 92H170.581C170.361 92 170.261 91.9 170.261 91.68V91.28C169.521 91.98 168.621 92.24 167.501 92.24C165.321 92.24 164.101 91.18 164.101 89.08V89.04C164.101 86.94 165.221 86.08 168.501 86.08H168.581C169.081 86.08 169.521 86.1 169.941 86.14C169.901 84.94 169.661 84.72 168.081 84.72C167.261 84.72 166.321 84.8 165.421 84.94H165.361C165.161 84.94 165.061 84.84 165.061 84.62V82.92C165.061 82.62 165.141 82.54 165.361 82.48C165.661 82.42 166.141 82.34 166.821 82.26C167.501 82.2 168.121 82.16 168.701 82.16ZM166.981 88.92V88.96C166.981 89.68 167.401 90.04 168.221 90.04C168.801 90.04 169.361 89.88 169.941 89.58V87.96C169.501 87.92 169.121 87.9 168.781 87.9H168.701C167.421 87.9 166.981 88.14 166.981 88.92ZM173.984 111.5V103.94H175.664V105.788L175.482 105.55C175.58 105.289 175.711 105.051 175.874 104.836C176.038 104.621 176.238 104.444 176.476 104.304C176.658 104.192 176.857 104.106 177.071 104.045C177.286 103.98 177.508 103.94 177.736 103.926C177.965 103.907 178.194 103.912 178.422 103.94V105.718C178.212 105.653 177.967 105.632 177.687 105.655C177.412 105.674 177.162 105.737 176.938 105.844C176.714 105.947 176.525 106.084 176.371 106.257C176.217 106.425 176.101 106.626 176.021 106.859C175.942 107.088 175.902 107.347 175.902 107.636V111.5H173.984Z" fill="#04165D"/>
</svg>
