<svg preserveAspectRatio="none" width="100%" height="100%" overflow="visible" style="display: block;" viewBox="0 0 201.393 58.1973" fill="none" xmlns="http://www.w3.org/2000/svg">
<path id="Cycle loop" d="M201.295 3.03281C201.589 2.25834 201.199 1.3921 200.425 1.098C199.65 0.803898 198.784 1.19331 198.49 1.96778L199.892 2.50029L201.295 3.03281ZM8.60268 0.179095C7.873 -0.213159 6.9635 0.0603763 6.57124 0.790053L0.179095 12.6808C-0.213159 13.4105 0.0603762 14.32 0.790053 14.7123C1.51973 15.1045 2.42923 14.831 2.82149 14.1013L8.5034 3.53173L19.073 9.21364C19.8026 9.60589 20.7122 9.33236 21.1044 8.60268C21.4967 7.873 21.2231 6.9635 20.4934 6.57124L8.60268 0.179095ZM199.892 2.50029L198.49 1.96778C183.819 40.6025 141.642 56.863 100.207 55.0642C79.5359 54.1668 59.2102 48.7659 42.8495 39.5149C26.4862 30.2624 14.1867 17.2206 9.32888 1.06828L7.89244 1.50029L6.456 1.9323C11.5982 19.03 24.5487 32.6132 41.3729 42.1263C58.1997 51.6409 78.999 57.1463 100.077 58.0614C142.143 59.8876 185.966 43.3981 201.295 3.03281L199.892 2.50029Z" fill="var(--stroke-0, #036EF2)"/>
</svg>
