<svg preserveAspectRatio="xMidYMid meet" width="100%" height="100%" overflow="visible" style="display: block;" viewBox="0 0 72.0001 76.5461" fill="none" xmlns="http://www.w3.org/2000/svg">
<path id="Cycle loop" d="M0.0081501 74.8909C-0.0774595 75.7149 0.521118 76.4523 1.34511 76.5379C2.1691 76.6235 2.90648 76.0249 2.99209 75.2009L1.50012 75.0459L0.0081501 74.8909ZM71.5608 12.1066C72.1466 11.5208 72.1466 10.5711 71.5608 9.98528L62.0148 0.43934C61.4291 -0.146447 60.4793 -0.146447 59.8935 0.43934C59.3077 1.02513 59.3077 1.97487 59.8935 2.56066L68.3788 11.0459L59.8935 19.5312C59.3077 20.117 59.3077 21.0668 59.8935 21.6525C60.4793 22.2383 61.4291 22.2383 62.0148 21.6525L71.5608 12.1066ZM1.50012 75.0459L2.99209 75.2009C6.91307 37.4615 36.2723 12.5459 70.5001 12.5459V11.0459V9.54594C34.7279 9.54594 4.08717 35.6304 0.0081501 74.8909L1.50012 75.0459Z" fill="var(--stroke-0, #036EF2)"/>
</svg>
