<svg preserveAspectRatio="xMidYMid meet" width="100%" height="100%" overflow="visible" style="display: block;" viewBox="0 0 76.5461 72.0001" fill="none" xmlns="http://www.w3.org/2000/svg">
<path id="Cycle loop" d="M1.65513 0.0081501C0.831137 -0.0774596 0.0937597 0.521118 0.0081501 1.34511C-0.0774596 2.1691 0.521118 2.90648 1.34511 2.99209L1.50012 1.50012L1.65513 0.0081501ZM64.4395 71.5608C65.0252 72.1466 65.975 72.1466 66.5608 71.5608L76.1067 62.0148C76.6925 61.4291 76.6925 60.4793 76.1067 59.8935C75.5209 59.3077 74.5712 59.3077 73.9854 59.8935L65.5001 68.3788L57.0148 59.8935C56.429 59.3077 55.4793 59.3077 54.8935 59.8935C54.3077 60.4793 54.3077 61.4291 54.8935 62.0148L64.4395 71.5608ZM1.50012 1.50012L1.34511 2.99209C39.0846 6.91307 64.0001 36.2723 64.0001 70.5001H65.5001H67.0001C67.0001 34.7279 40.9157 4.08717 1.65513 0.0081501L1.50012 1.50012Z" fill="#036EF2"/>
</svg>
