<svg preserveAspectRatio="none" width="100%" height="100%" overflow="visible" style="display: block;" viewBox="0 0 40 40" fill="none" xmlns="http://www.w3.org/2000/svg">
<g id="flowsheet">
<mask id="mask0_0_38" style="mask-type:alpha" maskUnits="userSpaceOnUse" x="0" y="0" width="40" height="40">
<rect id="Bounding box" width="40" height="40" fill="var(--fill-0, #D9D9D9)"/>
</mask>
<g mask="url(#mask0_0_38)">
<path id="flowsheet_2" d="M24.1058 35.8225C24.5822 35.8225 24.9812 35.6597 25.3029 35.3342C25.6243 35.0086 25.785 34.6076 25.785 34.1313C25.785 33.6546 25.6254 33.2556 25.3062 32.9342C24.9871 32.6125 24.5822 32.4517 24.0917 32.4517C23.6244 32.4517 23.2281 32.6113 22.9025 32.9304C22.5769 33.2499 22.4142 33.6547 22.4142 34.145C22.4142 34.6122 22.5769 35.0086 22.9025 35.3342C23.2281 35.6597 23.6292 35.8225 24.1058 35.8225ZM34.1475 18.5688C34.6167 18.5688 35.0157 18.4033 35.3446 18.0725C35.6738 17.7417 35.8383 17.3418 35.8383 16.8729C35.8383 16.4038 35.675 16.0047 35.3483 15.6758C35.0217 15.3469 34.6168 15.1825 34.1337 15.1825C33.674 15.1825 33.2787 15.3458 32.9479 15.6725C32.6171 15.9992 32.4517 16.4039 32.4517 16.8867C32.4517 17.3464 32.6171 17.7417 32.9479 18.0725C33.2787 18.4033 33.6786 18.5688 34.1475 18.5688ZM10.1254 17.8092H19.1183V14.5292H10.1254V17.8092ZM10.1254 25.4708H19.1183V22.175H10.1254V25.4708ZM6.12458 33.9929C5.11236 33.9929 4.24708 33.6338 3.52875 32.9154C2.81069 32.1974 2.45167 31.3322 2.45167 30.32V9.68C2.45167 8.66333 2.81069 7.79444 3.52875 7.07333C4.24708 6.35222 5.11236 5.99167 6.12458 5.99167H33.8754C34.8921 5.99167 35.761 6.35222 36.4821 7.07333C37.2035 7.79444 37.5642 8.66333 37.5642 9.68H6.12458V30.32H16.7333V33.9929H6.12458ZM20.5721 37.6642C19.6029 36.6947 19.1183 35.5175 19.1183 34.1325C19.1183 33.03 19.4308 32.0586 20.0558 31.2183C20.6808 30.3781 21.4794 29.7871 22.4517 29.4454V23.87H32.505V21.5621C31.5328 21.2293 30.7342 20.6428 30.1092 19.8025C29.4842 18.9622 29.1717 17.9907 29.1717 16.8879C29.1717 15.5029 29.6546 14.3257 30.6204 13.3563C31.5863 12.3868 32.7586 11.9021 34.1375 11.9021C35.5164 11.9021 36.6913 12.3864 37.6621 13.355C38.6329 14.3236 39.1183 15.4997 39.1183 16.8833C39.1183 17.985 38.8058 18.9569 38.1808 19.7992C37.5558 20.6417 36.7572 21.2293 35.785 21.5621V27.1504H25.7475V29.4425C26.7094 29.7861 27.5054 30.3785 28.1354 31.2196C28.7657 32.0607 29.0808 33.0332 29.0808 34.1371C29.0808 35.5235 28.5943 36.7003 27.6212 37.6675C26.6482 38.6347 25.4724 39.1183 24.0937 39.1183C22.7149 39.1183 21.541 38.6336 20.5721 37.6642Z" fill="var(--fill-0, #04165D)"/>
</g>
</g>
</svg>
