<svg preserveAspectRatio="none" width="100%" height="100%" overflow="visible" style="display: block;" viewBox="0 0 40 40" fill="none" xmlns="http://www.w3.org/2000/svg">
<g id="modeling">
<mask id="mask0_0_46" style="mask-type:alpha" maskUnits="userSpaceOnUse" x="0" y="0" width="40" height="40">
<rect id="Bounding box" width="40" height="40" fill="var(--fill-0, #D9D9D9)"/>
</mask>
<g mask="url(#mask0_0_46)">
<path id="modeling_2" d="M29.9208 35.1033L23.0338 28.2433L29.9129 21.3833L32.4854 24.0071L30.0567 26.4071L37.3417 26.435V30.0996L30.0567 30.0721L32.4933 32.4796L29.9208 35.1033ZM6.34667 34.3854C5.33444 34.3854 4.46931 34.0263 3.75125 33.3079C3.03292 32.5899 2.67375 31.7247 2.67375 30.7125V25.8575C2.67375 24.8564 3.03292 23.994 3.75125 23.2704C4.46931 22.5468 5.33444 22.185 6.34667 22.185H15.8646C16.866 22.185 17.7285 22.5468 18.4521 23.2704C19.1757 23.994 19.5375 24.8564 19.5375 25.8575V30.7125C19.5375 31.7247 19.1757 32.5899 18.4521 33.3079C17.7285 34.0263 16.866 34.3854 15.8646 34.3854H6.34667ZM6.34667 30.7125H15.8646V25.8575H6.34667V30.7125ZM10.0792 18.5608L7.50667 15.9883L9.94333 13.5375H2.67375V9.8725H9.94333L7.50667 7.44917L10.0792 4.87667L16.9425 11.7013L10.0792 18.5608ZM24.1588 17.8387C23.1465 17.8387 22.2814 17.4782 21.5633 16.7571C20.8453 16.0357 20.4862 15.1668 20.4862 14.1504V9.2875C20.4862 8.27083 20.8453 7.40194 21.5633 6.68083C22.2814 5.95972 23.1465 5.59917 24.1588 5.59917H33.6533C34.67 5.59917 35.5389 5.95972 36.26 6.68083C36.9811 7.40194 37.3417 8.27083 37.3417 9.2875V14.1504C37.3417 15.1668 36.9811 16.0357 36.26 16.7571C35.5389 17.4782 34.67 17.8387 33.6533 17.8387H24.1588ZM24.1588 14.1504H33.6533V9.2875H24.1588V14.1504Z" fill="var(--fill-0, #04165D)"/>
</g>
</g>
</svg>
