<svg width="284" height="186" viewBox="0 0 284 186" fill="none" xmlns="http://www.w3.org/2000/svg">
  <path d="M178.155 12.508C177.331 12.4224 176.594 13.021 176.508 13.845C176.422 14.669 177.021 15.4064 177.845 15.492L178 14L178.155 12.508ZM240.939 84.0607C241.525 84.6464 242.475 84.6464 243.061 84.0607L252.607 74.5147C253.192 73.9289 253.192 72.9792 252.607 72.3934C252.021 71.8076 251.071 71.8076 250.485 72.3934L242 80.8787L233.515 72.3934C232.929 71.8076 231.979 71.8076 231.393 72.3934C230.808 72.9792 230.808 73.9289 231.393 74.5147L240.939 84.0607ZM178 14L177.845 15.492C215.584 19.413 240.5 48.7722 240.5 83H242H243.5C243.5 47.2278 217.416 16.587 178.155 12.508L178 14Z" fill="#036EF2"/>
  <path d="M40.508 81.845C40.4224 82.669 41.021 83.4064 41.845 83.492C42.669 83.5776 43.4064 82.979 43.492 82.155L42 82L40.508 81.845ZM112.061 19.0607C112.646 18.4749 112.646 17.5251 112.061 16.9393L102.515 7.3934C101.929 6.80761 100.979 6.80761 100.393 7.3934C99.8076 7.97919 99.8076 8.92893 100.393 9.51472L108.879 18L100.393 26.4853C99.8076 27.0711 99.8076 28.0208 100.393 28.6066C100.979 29.1924 101.929 29.1924 102.515 28.6066L112.061 19.0607ZM42 82L43.492 82.155C47.413 44.4155 76.7722 19.5 111 19.5V18V16.5C75.2278 16.5 44.587 42.5845 40.508 81.845L42 82Z" fill="#036EF2"/>
  <path d="M240.402 130.533C240.696 129.758 240.307 128.892 239.533 128.598C238.758 128.304 237.892 128.693 237.598 129.467L239 130L240.402 130.533ZM47.7102 127.679C46.9806 127.287 46.0711 127.56 45.6788 128.29L39.2867 140.181C38.8944 140.91 39.1679 141.82 39.8976 142.212C40.6273 142.604 41.5368 142.331 41.929 141.601L47.611 131.031L58.1805 136.713C58.9102 137.106 59.8197 136.832 60.212 136.102C60.6042 135.373 60.3307 134.463 59.601 134.071L47.7102 127.679ZM239 130L237.598 129.467C222.926 168.102 180.749 184.363 139.315 182.564C118.643 181.666 98.3178 176.266 81.9571 167.015C65.5938 157.762 53.2943 144.72 48.4364 128.568L47 129L45.5636 129.432C50.7057 146.53 63.6562 160.113 80.4804 169.626C97.3072 179.141 118.107 184.646 139.185 185.561C181.251 187.387 225.074 170.898 240.402 130.533L239 130Z" fill="#036EF2"/>

  <rect x="1" y="90" width="93" height="32" rx="16" fill="#036EF2" fill-opacity="0.06"/>
  <rect x="1" y="90" width="93" height="32" rx="16" stroke="#036EF2" stroke-width="2"/>
  <rect x="118" y="1" width="52" height="32" rx="16" fill="#036EF2" fill-opacity="0.06"/>
  <rect x="118" y="1" width="52" height="32" rx="16" stroke="#036EF2" stroke-width="2"/>
  <rect x="202" y="90" width="81" height="32" rx="16" fill="#036EF2" fill-opacity="0.06"/>
  <rect x="202" y="90" width="81" height="32" rx="16" stroke="#036EF2" stroke-width="2"/>

  <text x="47.5" y="106" text-anchor="middle" dominant-baseline="central" fill="#04165D" style="font-family:Manrope,sans-serif;font-size:14px;font-weight:800">Observar</text>
  <text x="144" y="17" text-anchor="middle" dominant-baseline="central" fill="#04165D" style="font-family:Manrope,sans-serif;font-size:14px;font-weight:800">Ler</text>
  <text x="242.5" y="106" text-anchor="middle" dominant-baseline="central" fill="#04165D" style="font-family:Manrope,sans-serif;font-size:14px;font-weight:800">Ajustar</text>

  <text x="142" y="87" text-anchor="middle" fill="#04165D" style="font-family:'Bronkoh-Heavy',sans-serif;font-size:20px;font-weight:900">
    <tspan x="142" dy="0">Leitura</tspan>
    <tspan x="142" dy="20">mensal</tspan>
  </text>
</svg>
