<svg preserveAspectRatio="none" width="100%" height="100%" overflow="visible" style="display: block;" viewBox="0 0 40 40" fill="none" xmlns="http://www.w3.org/2000/svg">
<g id="thumbs_up_down">
<mask id="mask0_0_25" style="mask-type:alpha" maskUnits="userSpaceOnUse" x="0" y="0" width="40" height="40">
<rect id="Bounding box" width="40" height="40" fill="var(--fill-0, #D9D9D9)"/>
</mask>
<g mask="url(#mask0_0_25)">
<path id="thumbs_up_down_2" d="M3.38208 23.9613C2.45431 23.9613 1.65861 23.6338 0.995 22.9788C0.331667 22.3238 0 21.5265 0 20.5871V10.3817C0 9.98556 0.07625 9.60528 0.22875 9.24084C0.38125 8.87639 0.612222 8.52875 0.921667 8.19792L9.09583 0L10.435 1.3925C10.6092 1.59694 10.7504 1.80236 10.8587 2.00875C10.9671 2.21486 11.0213 2.4525 11.0213 2.72167V3.08625L9.84167 8.44333H17.9533C18.5881 8.44333 19.1232 8.65889 19.5588 9.09C19.9943 9.52083 20.2121 10.0549 20.2121 10.6921V12.7858C20.2121 13.0128 20.1942 13.2328 20.1583 13.4458C20.1228 13.6586 20.076 13.8303 20.0179 13.9608L16.5225 22.0821C16.2247 22.7618 15.814 23.245 15.2904 23.5317C14.7668 23.8181 14.0885 23.9613 13.2554 23.9613H3.38208ZM13.4263 20.5871L16.8846 12.6837V11.8413H6.11458L7.17083 6.75667L3.38208 10.5767V20.5871H13.4263ZM30.9042 40L29.5808 38.6075C29.3961 38.4031 29.2496 38.1976 29.1413 37.9912C29.0329 37.7851 28.9788 37.5475 28.9788 37.2783V36.9137L30.1737 31.5413H22.0467C21.4119 31.5413 20.8768 31.3289 20.4412 30.9042C20.0057 30.4794 19.7879 29.9482 19.7879 29.3104V27.2142C19.7879 26.9872 19.8058 26.7672 19.8417 26.5542C19.8772 26.3414 19.924 26.1697 19.9821 26.0392L23.4775 17.9021C23.7831 17.2263 24.1957 16.7467 24.7154 16.4633C25.2351 16.1803 25.9115 16.0387 26.7446 16.0387H36.6179C37.5457 16.0387 38.3414 16.3665 39.005 17.0221C39.6683 17.6776 40 18.4694 40 19.3975V29.6025C40 30.0142 39.9239 30.4015 39.7717 30.7646C39.6194 31.1276 39.3936 31.4682 39.0942 31.7863L30.9042 40ZM26.5738 19.3975L23.1154 27.3162V28.1588H33.8854L32.8292 33.2433L36.6179 29.4279V19.3975H26.5738Z" fill="var(--fill-0, #04165D)"/>
</g>
</g>
</svg>
