<svg preserveAspectRatio="none" width="100%" height="100%" overflow="visible" style="display: block;" viewBox="0 0 40 40" fill="none" xmlns="http://www.w3.org/2000/svg">
<g id="workspace_premium">
<mask id="mask0_0_43" style="mask-type:alpha" maskUnits="userSpaceOnUse" x="0" y="0" width="40" height="40">
<rect id="Bounding box" width="40" height="40" fill="var(--fill-0, #D9D9D9)"/>
</mask>
<g mask="url(#mask0_0_43)">
<path id="workspace_premium_2" d="M15.7242 23.1788L17.32 17.9221L13.0108 14.6817H18.2875L20 9.1925L21.6846 14.6817H26.9892L22.6896 17.9221L24.25 23.1788L20 19.9062L15.7242 23.1788ZM9.82083 38.9379V26.1233C8.53083 24.7908 7.57277 23.2971 6.94666 21.6421C6.32027 19.9874 6.00708 18.2871 6.00708 16.5413C6.00708 12.609 7.35625 9.29389 10.0546 6.59583C12.7529 3.8975 16.0681 2.54833 20 2.54833C23.9319 2.54833 27.2497 3.8975 29.9533 6.59583C32.6567 9.29389 34.0083 12.609 34.0083 16.5413C34.0083 18.2871 33.6926 19.9874 33.0612 21.6421C32.4299 23.2971 31.4692 24.7908 30.1792 26.1233V38.9379L20 35.5775L9.82083 38.9379ZM27.3175 23.8663C29.3192 21.8696 30.32 19.4304 30.32 16.5487C30.32 13.6671 29.3192 11.2254 27.3175 9.22375C25.3156 7.22181 22.8764 6.22083 20 6.22083C17.1236 6.22083 14.6844 7.22181 12.6825 9.22375C10.6808 11.2254 9.68 13.6671 9.68 16.5487C9.68 19.4304 10.6808 21.8696 12.6825 23.8663C14.6844 25.8629 17.1236 26.8612 20 26.8612C22.8764 26.8612 25.3156 25.8629 27.3175 23.8663ZM12.8887 34.6613L20 32.4304L27.1112 34.6613V28.4796C26.0307 29.186 24.8808 29.7076 23.6617 30.0446C22.4428 30.3813 21.2222 30.5496 20 30.5496C18.7778 30.5496 17.5572 30.3813 16.3383 30.0446C15.1192 29.7076 13.9693 29.186 12.8887 28.4796V34.6613Z" fill="var(--fill-0, #04165D)"/>
</g>
</g>
</svg>
